<svg xmlns="http://www.w3.org/2000/svg" viewBox="0 0 382 387" width="382" height="387"><path d="M328.844 411.733c-5.383-3.235-10.908-6.487-16.433-9.675 1.3-11.07 1.303-22.268.007-33.316 5.546-3.2 11.068-6.45 16.425-9.67 9.02-5.42 12.78-16.857 8.744-26.604l-11.772-28.42c-4.037-9.743-14.777-15.174-24.993-12.63-6.07 1.512-12.273 3.12-18.454 4.777-6.9-8.732-14.82-16.65-23.563-23.554 1.658-6.18 3.266-12.387 4.778-18.46 2.546-10.21-2.884-20.955-12.628-24.992l-28.418-11.77c-9.744-4.04-21.183-.282-26.605 8.74-3.23 5.374-6.483 10.9-9.675 16.433-11.067-1.298-22.263-1.3-33.316-.006-3.203-5.55-6.454-11.074-9.67-16.426-5.425-9.02-16.86-12.778-26.606-8.74l-28.418 11.77c-9.742 4.036-15.174 14.78-12.63 24.992 1.516 6.085 3.122 12.29 4.777 18.455-8.73 6.9-16.65 14.82-23.553 23.563-6.196-1.663-12.402-3.27-18.463-4.78-10.214-2.546-20.956 2.89-24.993 12.632l-11.77 28.417c-4.034 9.745-.275 21.182 8.743 26.602 5.375 3.23 10.9 6.48 16.433 9.674-1.298 11.066-1.3 22.262-.006 33.316-5.538 3.195-11.06 6.446-16.43 9.672-9.017 5.42-12.776 16.857-8.74 26.603l11.772 28.418c4.036 9.743 14.775 15.176 24.993 12.63 6.063-1.51 12.267-3.116 18.452-4.776 6.9 8.73 14.82 16.647 23.563 23.553-1.66 6.19-3.267 12.395-4.778 18.46-2.545 10.212 2.885 20.957 12.63 24.993l28.418 11.772c2.64 1.093 5.403 1.615 8.137 1.615 7.362 0 14.514-3.78 18.47-10.355 3.206-5.333 6.457-10.856 9.675-16.432 11.065 1.297 22.264 1.3 33.316.006 3.18 5.51 6.43 11.033 9.67 16.426 5.422 9.02 16.858 12.777 26.605 8.74l28.418-11.77c9.742-4.036 15.174-14.78 12.63-24.992-1.504-6.033-3.11-12.237-4.777-18.455 8.728-6.9 16.647-14.82 23.553-23.563 6.178 1.657 12.384 3.263 18.46 4.777 10.21 2.547 20.956-2.884 24.993-12.63l11.77-28.42c4.035-9.744.276-21.18-8.742-26.6zm-23.728 45.1c-5.837-1.46-11.787-3.007-17.703-4.6-8.376-2.254-17.215.69-22.52 7.506-6.095 7.83-13.15 14.885-20.967 20.972-6.807 5.302-9.748 14.138-7.493 22.51 1.603 5.953 3.148 11.9 4.6 17.695l-26.12 10.82c-3.108-5.185-6.22-10.482-9.26-15.766-4.327-7.513-12.655-11.677-21.216-10.617-9.83 1.22-19.81 1.22-29.654-.005-8.585-1.066-16.906 3.098-21.232 10.614-3.077 5.344-6.19 10.644-9.262 15.773l-26.122-10.82c1.46-5.827 3.007-11.776 4.603-17.7 2.254-8.376-.693-17.216-7.508-22.52-7.83-6.096-14.885-13.15-20.973-20.966-5.3-6.81-14.137-9.75-22.51-7.496-5.924 1.595-11.87 3.14-17.696 4.6l-10.82-26.12c5.16-3.094 10.46-6.205 15.765-9.26 7.514-4.327 11.682-12.653 10.618-21.215-1.223-9.833-1.22-19.81.003-29.656 1.07-8.57-3.096-16.905-10.615-21.233-5.304-3.053-10.604-6.165-15.772-9.264l10.82-26.12c5.82 1.458 11.768 3.004 17.702 4.6 8.372 2.257 17.212-.69 22.52-7.506 6.095-7.83 13.15-14.886 20.965-20.972 6.808-5.3 9.75-14.138 7.494-22.512-1.59-5.904-3.136-11.85-4.6-17.694l26.12-10.82c3.085 5.147 6.197 10.445 9.26 15.766 4.328 7.515 12.663 11.69 21.216 10.618 9.827-1.223 19.804-1.223 29.657.005 8.575 1.07 16.905-3.1 21.23-10.616 3.054-5.304 6.167-10.604 9.263-15.77l26.122 10.818c-1.462 5.833-3.008 11.782-4.603 17.703-2.256 8.374.69 17.214 7.506 22.52 7.83 6.094 14.885 13.148 20.973 20.964 5.3 6.806 14.132 9.747 22.51 7.493 5.92-1.594 11.865-3.14 17.694-4.6l10.82 26.12c-5.154 3.09-10.452 6.2-15.766 9.26-7.515 4.327-11.684 12.654-10.62 21.216 1.224 9.826 1.222 19.805-.004 29.656-1.066 8.57 3.1 16.904 10.617 21.23 5.297 3.05 10.597 6.162 15.773 9.264l-10.817 26.124z" fill="#e8e8e8"/><path d="M241.762 355.51c-16.48-39.79-62.257-58.752-102.052-42.27-39.788 16.48-58.752 62.26-42.27 102.05 7.983 19.276 22.997 34.287 42.27 42.272 9.638 3.99 19.764 5.987 29.89 5.987 10.126 0 20.252-1.997 29.89-5.988 39.79-16.482 58.752-62.26 42.272-102.05zM190.72 436.39c-13.618 5.64-28.617 5.64-42.24 0-13.617-5.64-24.224-16.25-29.866-29.868-11.647-28.114 1.753-60.462 29.868-72.107 6.885-2.852 14.02-4.202 21.047-4.202 21.666 0 42.264 12.84 51.06 34.07 11.644 28.115-1.756 60.462-29.87 72.108zM496.553 143.936c-3.956-.592-8.02-1.167-12.11-1.713-2.063-6.857-4.817-13.505-8.215-19.82 2.504-3.274 4.972-6.555 7.357-9.778 5.295-7.16 4.53-17.317-1.78-23.623l-15.808-15.806c-6.31-6.31-16.465-7.075-23.624-1.778-3.234 2.393-6.514 4.86-9.78 7.355-6.312-3.398-12.96-6.152-19.818-8.215-.547-4.092-1.12-8.155-1.712-12.11-1.317-8.806-9.04-15.448-17.96-15.448h-22.357c-8.922 0-16.644 6.642-17.96 15.447-.592 3.953-1.166 8.017-1.713 12.11-6.86 2.063-13.507 4.817-19.82 8.215-3.262-2.496-6.544-4.964-9.777-7.355-7.16-5.297-17.317-4.532-23.624 1.777L282.046 89c-6.31 6.307-7.077 16.464-1.78 23.626 2.383 3.222 4.85 6.504 7.354 9.778-3.396 6.313-6.15 12.96-8.214 19.82-4.09.546-8.155 1.12-12.11 1.712-8.807 1.318-15.45 9.04-15.45 17.962v22.355c0 8.922 6.64 16.644 15.448 17.962 3.956.592 8.02 1.167 12.11 1.713 2.064 6.858 4.818 13.505 8.215 19.82-2.502 3.27-4.97 6.55-7.358 9.778-5.294 7.16-4.53 17.317 1.78 23.622l15.808 15.808c6.308 6.31 16.464 7.074 23.624 1.778 3.234-2.39 6.514-4.86 9.778-7.354 6.315 3.398 12.963 6.152 19.82 8.214.545 4.09 1.12 8.155 1.712 12.11 1.318 8.807 9.04 15.45 17.962 15.45h22.356c8.922 0 16.644-6.64 17.96-15.45.592-3.956 1.166-8.02 1.713-12.11 6.858-2.062 13.505-4.818 19.82-8.216 3.262 2.496 6.544 4.964 9.777 7.356 7.16 5.297 17.317 4.532 23.624-1.777l15.808-15.806c6.31-6.307 7.075-16.464 1.778-23.625-2.386-3.226-4.854-6.508-7.354-9.777 3.396-6.313 6.15-12.96 8.214-19.82 4.09-.546 8.155-1.12 12.11-1.712 8.807-1.318 15.45-9.04 15.45-17.962V161.9c-.002-8.924-6.643-16.646-15.45-17.964zm-6.325 37.206c-3.592.52-7.257 1.027-10.934 1.506-7.273.95-13.227 6.11-15.165 13.15-1.858 6.738-4.553 13.24-8.01 19.327-3.61 6.353-3.054 14.215 1.42 20.032 2.254 2.932 4.49 5.883 6.668 8.8l-11.404 11.404c-2.925-2.182-5.876-4.418-8.802-6.668-5.814-4.475-13.678-5.028-20.032-1.42-6.087 3.457-12.59 6.152-19.325 8.01-7.042 1.94-12.204 7.893-13.15 15.164-.48 3.677-.984 7.343-1.506 10.935h-16.13c-.522-3.59-1.027-7.256-1.507-10.93-.95-7.274-6.11-13.228-13.15-15.168-6.737-1.856-13.238-4.55-19.327-8.01-6.354-3.61-14.218-3.054-20.03 1.42-2.928 2.25-5.877 4.486-8.804 6.67l-11.404-11.406c2.177-2.92 4.413-5.868 6.67-8.803 4.47-5.815 5.028-13.677 1.418-20.03-3.457-6.086-6.152-12.59-8.01-19.327-1.938-7.04-7.89-12.2-15.164-13.15-3.677-.48-7.343-.984-10.935-1.507v-16.13c3.592-.52 7.257-1.026 10.934-1.505 7.274-.95 13.228-6.11 15.166-13.15 1.857-6.737 4.55-13.24 8.01-19.327 3.61-6.353 3.053-14.216-1.418-20.03-2.26-2.937-4.495-5.887-6.67-8.8l11.404-11.406c2.925 2.183 5.875 4.42 8.8 6.668 5.812 4.475 13.675 5.033 20.034 1.422 6.085-3.457 12.59-6.152 19.325-8.01 7.043-1.94 12.205-7.894 13.15-15.165.48-3.677.987-7.342 1.508-10.934h16.13c.52 3.59 1.026 7.256 1.505 10.93.95 7.275 6.11 13.23 13.15 15.168 6.738 1.858 13.242 4.554 19.328 8.01 6.356 3.612 14.22 3.05 20.03-1.42 2.928-2.25 5.877-4.485 8.804-6.668l11.404 11.405c-2.175 2.915-4.41 5.866-6.67 8.803-4.47 5.814-5.027 13.676-1.42 20.03 3.458 6.087 6.153 12.59 8.01 19.327 1.94 7.04 7.892 12.2 15.165 13.15 3.677.48 7.343.985 10.935 1.507v16.128z" fill="#e8e8e8"/><path d="M381.924 126.675c-25.585 0-46.4 20.815-46.4 46.4 0 25.588 20.814 46.403 46.4 46.403s46.4-20.815 46.4-46.402c0-25.586-20.814-46.4-46.4-46.4zm0 72.176c-14.21 0-25.775-11.562-25.775-25.775S367.71 147.3 381.923 147.3c14.212 0 25.774 11.563 25.775 25.775 0 14.213-11.564 25.776-25.776 25.776z" fill="#e8e8e8"/></svg>