<svg xmlns="http://www.w3.org/2000/svg" viewBox="0 0 512 512" width="512" height="512"><path d="M510.576 264.536l-58.43-157.94c-2.123-5.74-6.354-10.307-11.914-12.863-5.56-2.556-11.78-2.796-17.52-.672L137.797 198.468c-5.74 2.123-10.307 6.354-12.864 11.912-2.556 5.558-2.795 11.78-.672 17.518l58.43 157.94c2.123 5.74 6.354 10.307 11.914 12.864 3.05 1.403 6.3 2.107 9.56 2.107 2.68 0 5.37-.477 7.96-1.436l284.918-105.406c11.844-4.383 17.916-17.586 13.534-29.432zM407.052 123.28l-88.377 126.343-149.327-38.405 237.704-87.94zM200.044 366.73l-50.683-137 117.383 30.193-66.7 106.808zm24.82 3.507l65.15-104.33 30.643 7.882c.95.24 1.913.366 2.852.366 3.687 0 7.215-1.787 9.39-4.89l18.134-25.945 117.37 36.82-243.54 90.097zm139.95-146.6l69.463-99.323 50.703 137.02-120.166-37.696zM133.44 388.976c-2.194-5.933-8.786-8.96-14.715-6.768l-43.162 15.968c-5.933 2.196-8.962 8.784-6.768 14.716 1.71 4.623 6.086 7.482 10.743 7.482 1.32 0 2.663-.23 3.973-.715l43.16-15.97c5.936-2.192 8.965-8.78 6.77-14.714zM75.023 282.646c-2.196-5.933-8.785-8.96-14.716-6.768l-26.643 9.857c-5.933 2.196-8.962 8.783-6.768 14.716 1.71 4.623 6.087 7.483 10.743 7.483 1.318 0 2.662-.23 3.972-.715l26.643-9.857c5.933-2.192 8.963-8.78 6.768-14.714zM41.995 369.408c-2.196-5.933-8.785-8.962-14.716-6.768L7.48 369.964C1.55 372.16-1.48 378.748.714 384.68c1.71 4.622 6.086 7.482 10.743 7.482 1.32 0 2.663-.23 3.973-.715l19.797-7.324c5.934-2.194 8.963-8.782 6.768-14.715z" fill="#29516D"/></svg>