<!-- Generated by IcoMoon.io -->
<svg version="1.1" xmlns="http://www.w3.org/2000/svg" width="14" height="32" viewBox="0 0 14 32">
<title>gulp</title>
<path d="M7.125 25.188q2.375 0 4-0.438 0.688-0.188 1.188-0.375l-0.875 1.563-0.313 5q0 1-3.938 1t-3.938-1l-0.313-4.938-0.938-1.625q0.625 0.25 1.125 0.375 1.625 0.438 4 0.438zM12.313 9.125q1.5-0.25 1.625-0.313l0.375-0.188-0.938 8.5q-0.125 0.125-0.281 0.25t-0.219 0.188q-0.125 0.125-0.281 0.25t-0.219 0.188-0.188 0.125l-0.125 0.125q-0.063 0.063-0.188 0.063h-0.125v-0.125q0-0.063 0.063-0.125l0.25-0.25q0.063-0.125 0.25-0.313 0.25-0.25 0.313-0.375 0-0.063 0.063-0.219t0.125-0.219q0.063-0.125 0.063-0.313t-0.063-0.25l-0.125-0.125q-0.125-0.125-0.188-0.125h-0.125l-0.125-0.063q-0.063 0-0.313 0.125-0.063 0.063-0.156 0.063t-0.156 0.063-0.156 0.125-0.156 0.125l-0.313 0.313q0.063 0 0.063-0.063v-0.313q0-0.125-0.063-0.188t-0.188-0.063-0.188 0.063q0 0.063-0.063 0.125l-0.063 0.125q0 0.063-0.063 0.125t-0.063 0.125q-0.063 0.063-0.063 0.25-0.063 0.063-0.063 0.156v0.156l-0.188 0.188t-0.125 0.063l-0.5 0.5q-0.063 0-0.188 0.125-0.125 0-0.125 0.063t-0.063 0.063-0.125 0.063-0.188 0.063l-0.125-0.063v-0.188l0.125-0.25v-0.125q0.063-0.125 0.188-0.5 0-0.063 0.094-0.281t0.156-0.344 0.313-0.688q0.125-0.313 0.25-0.688 0.063-0.125 0.156-0.344t0.094-0.281 0.063-0.156l0.125-0.188t0.063-0.156v-0.063q0.063-0.063 0.063-0.125v-0.125q0-0.188-0.063-0.25t-0.188-0.063q-0.188 0-0.25 0.063l-0.125 0.25-1.063 2.625q-0.063 0.063-0.156 0.313t-0.094 0.313q0 0.125-0.094 0.313l-0.156 0.313q0 0.063-0.063 0.188t-0.063 0.188l-0.063 0.063q-0.063 0-0.156 0.063t-0.156 0.125q-0.125 0.063-0.313 0.063-0.125 0-0.125-0.125 0-0.188 0.063-0.313 0-0.063 0.063-0.219t0.063-0.219 0.063-0.188 0.063-0.188 0.063-0.156 0.063-0.156 0.031-0.156 0.094-0.156 0.063-0.188q0-0.188-0.063-0.25-0.125-0.125-0.188-0.125t-0.188 0.125q0 0.063-0.063 0.063l-0.063 0.125q-0.063 0.063-0.063 0.125t-0.031 0.094-0.031 0.094-0.031 0.156-0.094 0.156q-0.125 0.25-0.25 0.438-0.063 0.063-0.156 0.25t-0.156 0.25l-0.375 0.375q-0.125 0.125-0.438 0.125-0.125 0-0.125-0.063v-0.125q0-0.25 0.063-0.375 0.063-0.063 0.063-0.188t0.063-0.188 0.063-0.156 0.063-0.156 0.125-0.156 0.063-0.156l0.125-0.25q0.063-0.063 0.063-0.188v-0.188l-0.063-0.125h-0.125q0-0.063-0.063-0.063-0.125 0-0.25 0.125-0.063 0.063-0.125 0.188-0.125 0.188-0.25 0.531t-0.188 0.469-0.25 0.688l-0.125 0.375v0.125q0 0.25 0.063 0.313 0.063 0 0.063 0.063t0.063 0.125q0.125 0.125 0.188 0.125h0.25q0.313 0 0.438-0.063 0.063 0 0.188-0.125t0.188-0.125q0.188-0.125 0.313-0.313 0-0.063 0.125-0.156t0.125-0.156q-0.063 0.188-0.063 0.438t0.125 0.375 0.25 0.125q0.25 0 0.375-0.063 0.375-0.188 0.438-0.25l0.125-0.125v0.063q0 0.125 0.063 0.188 0.125 0.125 0.188 0.125h0.063q0.063 0.063 0.125 0.063 0.188 0 0.438-0.125 0.375-0.188 0.438-0.25t0.25-0.188 0.25-0.188q0 0.063-0.031 0.063t-0.031 0.063q-0.063 0.125-0.188 0.406t-0.188 0.406-0.188 0.438-0.188 0.438v0.063l-0.125 0.125v0.125t-0.031 0.063-0.031 0.063v0.188q0 0.188 0.063 0.25t0.188 0.063q0.063 0 0.188-0.063l0.25-0.25v-0.125l0.063-0.125q0.063-0.063 0.063-0.125 0-0.188 0.063-0.25l0.125-0.25q0-0.063 0.031-0.156t0.094-0.156 0.063-0.25l0.063-0.125q0.063-0.063 0.063-0.125t0.031-0.063 0.031-0.063q0-0.125 0.125-0.25 0.063-0.063 0.063-0.188l0.063-0.063q0.063-0.063 0.063-0.125l0.063-0.125q0.063-0.063 0.063-0.156t0.063-0.156 0.125-0.188 0.125-0.188 0.125-0.156 0.125-0.156q0.063-0.188 0.25-0.25 0.063-0.063 0.156-0.125t0.156-0.063q0.25-0.125 0.313-0.125l0.063 0.063q0.063 0 0.063 0.063 0 0.188-0.063 0.25l-0.25 0.25q-0.125 0.25-0.25 0.375l-0.313 0.313-0.313 0.625v0.063q0 0.25 0.125 0.313 0.25 0.125 0.438 0.125 0.125 0 0.5-0.125 0.25-0.063 0.5-0.25 0.188-0.125 0.563-0.5 0-0.063 0.063-0.063t0.125-0.063l-0.688 5.875q-0.063 0.188-0.75 0.406t-2 0.438-2.75 0.219-2.75-0.219-2-0.438-0.75-0.406l-0.438-4.938h0.063q0.25 0.125 0.375 0.125 0.188 0 0.438-0.125l0.5-0.25q0.063-0.063 0.219-0.188t0.219-0.188l0.375-0.375q-0.063 0.063-0.094 0.219t-0.031 0.219-0.031 0.219-0.094 0.219q0 0.063-0.063 0.219t-0.063 0.219q-0.063 0.125-0.063 0.25v0.125q0 0.188 0.063 0.25t0.125 0.063 0.125-0.063q0-0.063 0.063-0.063h0.063q0.125-0.125 0.125-0.188v-0.125q0.063-0.063 0.063-0.125l0.063-0.125v-0.188q0-0.125 0.125-0.375 0-0.063 0.063-0.188t0.063-0.188 0.063-0.219 0.063-0.219 0.063-0.188 0.063-0.188q0.063-0.125 0.063-0.25l0.063-0.125q0-0.063 0.063-0.188t0.063-0.188 0.063-0.156 0.063-0.156q0.063-0.125 0.063-0.375 0-0.063 0.031-0.156t0.031-0.156v-0.188l-0.063-0.063q-0.063-0.063-0.125-0.063h-0.063q-0.125 0-0.188 0.063-0.125 0.125-0.188 0.25l-0.313 0.938q-0.063 0.063-0.188 0.313-0.063 0.125-0.25 0.313l-0.688 0.688q-0.063 0.063-0.188 0.156t-0.188 0.094q-0.125 0.063-0.25 0.063t-0.188-0.063q-0.125-0.125-0.125-0.188v-0.063q-0.063-0.063-0.063-0.125v-0.25q0-0.438 0.063-0.75t0.313-0.938q0.125-0.25 0.438-0.813 0.188-0.313 0.563-0.813 0.25-0.313 0.5-0.5 0.313-0.188 0.563-0.188 0.188 0 0.25 0.063 0.188 0.188 0.25 0.313t0.25 0.313q0.125 0.125 0.188 0.125t0.188-0.125 0.125-0.25v-0.188q0-0.063-0.125-0.188-0.25-0.375-0.563-0.563t-0.563-0.188q-0.188 0-0.563 0.125l-0.563 0.375q-0.188 0.125-0.563 0.5-0.25 0.25-0.438 0.625-0.063 0.125-0.219 0.375t-0.219 0.375-0.188 0.406-0.188 0.406q-0.063 0.063-0.063 0.188t-0.063 0.188l-0.875-7.813q0.375 0.188 0.438 0.188 0.188 0.063 1.563 0.313 2.313 0.313 5.125 0.313t5.125-0.313zM7.188 7.125q7.188 0 7.188 1t-7.188 1-7.188-1 7.188-1zM10.063 8.375q0-0.188-0.875-0.188-0.813 0-0.813 0.188 0 0.25 0.813 0.25 0.875 0 0.875-0.25zM8.5 8.313l1.125-4.188 3.813-4v-0.063q0.188-0.188 0.625 0.25t0.313 0.563l-3.563 3.813-0.938 3.625q0 0.125-0.688 0.125t-0.688-0.125z"></path>
</svg>
