<!-- Generated by IcoMoon.io -->
<svg version="1.1" xmlns="http://www.w3.org/2000/svg" width="25" height="32" viewBox="0 0 25 32">
<title>node</title>
<path d="M12.313 27.813q-0.625 0-1.063-0.25l-3.375-2q-0.5-0.313-0.125-0.438 0.75-0.25 1.563-0.75 0.063-0.125 0.25 0.063l2.625 1.5q0.188 0.125 0.313 0l10.188-5.875q0.188-0.063 0.188-0.25v-11.813q0-0.125-0.188-0.25l-10.188-5.875q-0.125-0.063-0.313 0l-10.188 5.875q-0.188 0.125-0.188 0.25v11.813q0 0.188 0.188 0.25l2.813 1.625q1.125 0.5 1.781 0.125t0.656-1.125v-11.625q0-0.313 0.25-0.313h1.313q0.313 0 0.313 0.313v11.625q0 3.125-3 3.125-1.063 0-2.375-0.625l-2.688-1.5q-1.063-0.563-1.063-1.875v-11.813q0-1.25 1.063-1.813l10.188-5.938q1.125-0.625 2.188 0l10.188 5.938q1.063 0.563 1.063 1.813v11.813q0 1.313-1.063 1.875l-10.188 5.875q-0.438 0.25-1.063 0.25h-0.063zM15.5 19.75q-5.438 0-5.438-3.813 0-0.25 0.313-0.25h1.313q0.313 0 0.313 0.25 0.125 1.063 0.844 1.531t2.656 0.469q3.063 0 3.063-1.625 0-0.375-0.188-0.625t-1.031-0.5-2.406-0.375q-2.313-0.188-3.406-0.875t-1.094-2.25q0-3.25 4.625-3.25 4.875 0 5.125 3.563 0 0.188-0.063 0.25t-0.25 0.063h-1.313q-0.313 0-0.313-0.25-0.25-1.063-0.906-1.438t-2.281-0.375q-2.625 0-2.625 1.375 0 0.563 0.594 0.813t2.906 0.563q2.5 0.375 3.563 1.031t1.063 2.219q0 3.5-5.063 3.5z"></path>
</svg>
