<!-- Generated by IcoMoon.io -->
<svg version="1.1" xmlns="http://www.w3.org/2000/svg" width="32" height="32" viewBox="0 0 32 32">
<title>react</title>
<path fill="#00d8ff" d="M18.651 15.979c0 1.479-1.199 2.677-2.677 2.677s-2.677-1.199-2.677-2.677c0-1.479 1.199-2.677 2.677-2.677s2.677 1.199 2.677 2.677z"></path>
<path fill="#00d8ff" d="M15.973 22.112c-3.76 0-7.045-0.443-9.504-1.285-1.595-0.544-2.949-1.269-3.915-2.096-1.024-0.875-1.568-1.829-1.568-2.752 0-1.771 1.941-3.504 5.2-4.635 2.667-0.928 6.144-1.445 9.781-1.445 3.573 0 7.003 0.501 9.653 1.419 1.552 0.533 2.859 1.227 3.787 1.995 1.008 0.843 1.541 1.765 1.541 2.667 0 1.84-2.171 3.701-5.669 4.859-2.475 0.821-5.781 1.275-9.307 1.275zM15.973 11.179c-3.451 0-6.864 0.501-9.36 1.371-2.997 1.045-4.341 2.475-4.341 3.429 0 0.992 1.445 2.555 4.613 3.637 2.325 0.795 5.472 1.216 9.088 1.216 3.392 0 6.555-0.427 8.907-1.211 3.291-1.093 4.795-2.656 4.795-3.643 0-0.507-0.384-1.104-1.083-1.685-0.805-0.672-1.979-1.285-3.381-1.771-2.523-0.864-5.803-1.344-9.237-1.344z"></path>
<path fill="#00d8ff" d="M9.899 29.323c-0.544 0-1.024-0.117-1.429-0.352-1.531-0.885-2.064-3.435-1.419-6.821 0.528-2.779 1.819-6.043 3.637-9.195 1.787-3.093 3.931-5.813 6.048-7.653 1.237-1.077 2.491-1.867 3.621-2.283 1.232-0.453 2.299-0.453 3.077-0.005 1.595 0.917 2.123 3.733 1.376 7.339-0.528 2.56-1.787 5.648-3.547 8.704-1.877 3.253-3.904 5.877-5.861 7.589-1.269 1.109-2.576 1.92-3.771 2.341-0.624 0.224-1.211 0.336-1.733 0.336zM11.237 13.275l0.555 0.32c-1.723 2.987-2.997 6.192-3.488 8.795-0.592 3.12-0.021 4.997 0.8 5.472 0.203 0.117 0.469 0.181 0.795 0.181 1.061 0 2.731-0.672 4.661-2.357 1.851-1.616 3.787-4.133 5.595-7.264 1.696-2.939 2.901-5.893 3.403-8.32 0.699-3.397 0.096-5.477-0.763-5.973-0.437-0.251-1.147-0.219-2 0.096-0.987 0.363-2.101 1.072-3.221 2.048-2.011 1.749-4.064 4.352-5.781 7.328l-0.555-0.325z"></path>
<path fill="#00d8ff" d="M22.048 29.339c-1.451 0-3.291-0.875-5.211-2.528-2.144-1.845-4.325-4.592-6.149-7.744v0c-1.792-3.093-3.072-6.309-3.611-9.067-0.315-1.611-0.373-3.088-0.171-4.277 0.224-1.296 0.752-2.219 1.536-2.672 1.589-0.923 4.293 0.027 7.045 2.475 1.952 1.733 4 4.368 5.765 7.419 1.883 3.253 3.147 6.32 3.648 8.869 0.325 1.653 0.379 3.189 0.149 4.437-0.245 1.328-0.8 2.272-1.6 2.736-0.4 0.235-0.875 0.352-1.403 0.352zM11.797 18.427c1.728 2.987 3.872 5.691 5.877 7.413 2.405 2.069 4.315 2.517 5.141 2.037 0.859-0.496 1.488-2.528 0.837-5.813-0.48-2.411-1.691-5.344-3.504-8.475-1.701-2.939-3.659-5.461-5.509-7.104-2.592-2.304-4.693-2.821-5.552-2.325-0.437 0.251-0.763 0.885-0.917 1.781-0.176 1.035-0.123 2.357 0.165 3.813 0.512 2.619 1.739 5.696 3.461 8.672v0z"></path>
</svg>
