<!-- Generated by IcoMoon.io -->
<svg version="1.1" xmlns="http://www.w3.org/2000/svg" width="32" height="32" viewBox="0 0 32 32">
<title>redux</title>
<path fill="#764abc" d="M20.992 20.928c0.928-0.096 1.632-0.896 1.6-1.856s-0.832-1.728-1.792-1.728h-0.064c-0.992 0.032-1.76 0.864-1.728 1.856 0.032 0.48 0.224 0.896 0.512 1.184-1.088 2.144-2.752 3.712-5.248 5.024-1.696 0.896-3.456 1.216-5.216 0.992-1.44-0.192-2.56-0.832-3.264-1.888-1.024-1.568-1.12-3.264-0.256-4.96 0.608-1.216 1.568-2.112 2.176-2.56-0.128-0.416-0.32-1.12-0.416-1.632-4.64 3.36-4.16 7.904-2.752 10.048 1.056 1.6 3.2 2.592 5.568 2.592 0.64 0 1.28-0.064 1.92-0.224 4.096-0.8 7.2-3.232 8.96-6.848z"></path>
<path fill="#764abc" d="M26.624 16.96c-2.432-2.848-6.016-4.416-10.112-4.416h-0.512c-0.288-0.576-0.896-0.96-1.568-0.96h-0.064c-0.992 0.032-1.76 0.864-1.728 1.856 0.032 0.96 0.832 1.728 1.792 1.728h0.064c0.704-0.032 1.312-0.48 1.568-1.088h0.576c2.432 0 4.736 0.704 6.816 2.080 1.6 1.056 2.752 2.432 3.392 4.096 0.544 1.344 0.512 2.656-0.064 3.776-0.896 1.696-2.4 2.624-4.384 2.624-1.28 0-2.496-0.384-3.136-0.672-0.352 0.32-0.992 0.832-1.44 1.152 1.376 0.64 2.784 0.992 4.128 0.992 3.072 0 5.344-1.696 6.208-3.392 0.928-1.856 0.864-5.056-1.536-7.776z"></path>
<path fill="#764abc" d="M10.368 21.472c0.032 0.96 0.832 1.728 1.792 1.728h0.064c0.992-0.032 1.76-0.864 1.728-1.856-0.032-0.96-0.832-1.728-1.792-1.728h-0.064c-0.064 0-0.16 0-0.224 0.032-1.312-2.176-1.856-4.544-1.664-7.104 0.128-1.92 0.768-3.584 1.888-4.96 0.928-1.184 2.72-1.76 3.936-1.792 3.392-0.064 4.832 4.16 4.928 5.856 0.416 0.096 1.12 0.32 1.6 0.48-0.384-5.184-3.584-7.872-6.656-7.872-2.88 0-5.536 2.080-6.592 5.152-1.472 4.096-0.512 8.032 1.28 11.136-0.16 0.224-0.256 0.576-0.224 0.928z"></path>
</svg>
