<!-- Generated by IcoMoon.io -->
<svg version="1.1" xmlns="http://www.w3.org/2000/svg" width="32" height="32" viewBox="0 0 32 32">
<title>ts</title>
<path d="M0 16v16h32v-32h-32v16zM19.613 15.437v1.455h-4.035l-0.019 6.541-0.028 6.55-1.708 0.028-1.717 0.019v-13.138h-4.129v-2.909h11.636v1.455zM27.552 14.123c0.46 0.084 1.060 0.206 1.333 0.291l0.488 0.141v1.586c0 0.882-0.028 1.595-0.056 1.595-0.038 0-0.319-0.122-0.638-0.282-1.379-0.676-3.35-0.863-4.242-0.394-0.629 0.319-0.882 0.694-0.882 1.276 0 0.807 0.263 1.042 2.609 2.299 2.468 1.314 3.256 2.036 3.632 3.322 0.16 0.554 0.206 1.989 0.094 2.656-0.169 0.948-1.182 2.196-2.186 2.703-0.901 0.45-1.971 0.657-3.491 0.657-1.455 0-2.018-0.084-3.303-0.479l-0.826-0.244v-1.774c0-1.398 0.028-1.764 0.122-1.699 0.056 0.038 0.338 0.225 0.61 0.413 0.657 0.46 1.492 0.788 2.393 0.929 1.858 0.3 3.256-0.291 3.256-1.37 0-0.835-0.497-1.342-2.102-2.158-1.83-0.929-2.721-1.501-3.228-2.046-1.239-1.361-1.492-3.275-0.657-5.002 0.61-1.257 2.027-2.149 3.904-2.468 0.751-0.122 2.299-0.103 3.172 0.047z"></path>
</svg>
