<!-- Generated by IcoMoon.io -->
<svg version="1.1" xmlns="http://www.w3.org/2000/svg" width="32" height="32" viewBox="0 0 32 32">
<title>unity</title>
<path d="M28.212 16.133l1.805-3.058c0.073-0.152 0.082-0.328 0.027-0.485l-3.575-10.24c-0.11-0.313-0.438-0.49-0.755-0.413l-10.508 2.56c-0.2 0.050-0.365 0.192-0.443 0.385l-1.117 2.798h-3.408c-0.178 0-0.35 0.075-0.47 0.205l-7.68 8.32c-0.238 0.258-0.225 0.657 0.027 0.898l8.055 7.68c0.117 0.115 0.277 0.177 0.44 0.177h3.672l1.12 2.797c0.082 0.207 0.268 0.355 0.485 0.392l11.175 1.92c0.035 0.008 0.073 0.010 0.108 0.010 0.297 0 0.56-0.205 0.625-0.503l2.267-10.387c0.035-0.16 0.008-0.328-0.080-0.47zM13.648 7.68l9.020-1.652-4.747 9.332h-10.773zM14.287 24.96l-7.14-7.040h10.773l5.6 8.428zM25.848 24.895l-5.367-8.255 4.692-9.332 3.040 8.828z"></path>
</svg>
